<svg width="472" height="24" viewBox="0 0 472 24" fill="none" xmlns="http://www.w3.org/2000/svg">
<g clip-path="url(#clip0_608_52)">
<path fill-rule="evenodd" clip-rule="evenodd" d="M396 0C389.373 0 384 5.37258 384 12C384 18.6274 389.373 24 396 24C402.627 24 408 18.6274 408 12C408 5.37258 402.627 0 396 0ZM393.361 5.63845C394.044 5.60738 394.262 5.59978 396 5.59978H395.998C397.737 5.59978 397.954 5.60738 398.637 5.63845C399.318 5.66965 399.783 5.77751 400.192 5.93578C400.613 6.09912 400.969 6.31779 401.325 6.67379C401.681 7.02953 401.9 7.3866 402.064 7.80754C402.221 8.21447 402.329 8.67954 402.361 9.36088C402.392 10.0436 402.4 10.2617 402.4 11.9998C402.4 13.738 402.392 13.9556 402.361 14.6383C402.329 15.3193 402.221 15.7846 402.064 16.1916C401.9 16.6124 401.681 16.9695 401.325 17.3252C400.969 17.6812 400.613 17.9004 400.192 18.0639C399.785 18.2222 399.319 18.33 398.638 18.3612C397.955 18.3923 397.738 18.3999 395.999 18.3999C394.261 18.3999 394.043 18.3923 393.361 18.3612C392.679 18.33 392.214 18.2222 391.807 18.0639C391.386 17.9004 391.029 17.6812 390.674 17.3252C390.318 16.9695 390.099 16.6124 389.936 16.1915C389.777 15.7846 389.67 15.3195 389.638 14.6381C389.607 13.9555 389.6 13.738 389.6 11.9998C389.6 10.2617 389.608 10.0434 389.638 9.36075C389.669 8.67968 389.777 8.21447 389.935 7.8074C390.099 7.3866 390.318 7.02953 390.674 6.67379C391.03 6.31792 391.387 6.09925 391.808 5.93578C392.215 5.77751 392.68 5.66965 393.361 5.63845Z" fill="#B0B0B0"/>
<path fill-rule="evenodd" clip-rule="evenodd" d="M395.426 6.75352C395.537 6.75335 395.657 6.7534 395.786 6.75346L396 6.75352C397.709 6.75352 397.911 6.75966 398.586 6.79032C399.21 6.81886 399.549 6.92312 399.774 7.01073C400.073 7.12673 400.286 7.26539 400.51 7.4894C400.734 7.7134 400.872 7.92673 400.989 8.2254C401.076 8.45074 401.181 8.78941 401.209 9.41342C401.24 10.0881 401.246 10.2908 401.246 11.9988C401.246 13.7068 401.24 13.9095 401.209 14.5841C401.18 15.2081 401.076 15.5468 400.989 15.7721C400.873 16.0708 400.734 16.2835 400.51 16.5074C400.286 16.7314 400.073 16.87 399.774 16.986C399.549 17.074 399.21 17.178 398.586 17.2066C397.911 17.2372 397.709 17.2439 396 17.2439C394.291 17.2439 394.088 17.2372 393.414 17.2066C392.79 17.1778 392.451 17.0735 392.225 16.9859C391.927 16.8699 391.713 16.7312 391.489 16.5072C391.265 16.2832 391.127 16.0704 391.01 15.7716C390.923 15.5463 390.818 15.2076 390.79 14.5836C390.759 13.9089 390.753 13.7063 390.753 11.9972C390.753 10.2881 390.759 10.0865 390.79 9.41182C390.818 8.78781 390.923 8.44914 391.01 8.22354C391.126 7.92487 391.265 7.71153 391.489 7.48753C391.713 7.26353 391.927 7.12486 392.225 7.00859C392.451 6.92059 392.79 6.81659 393.414 6.78792C394.004 6.76126 394.233 6.75326 395.426 6.75192V6.75352ZM399.417 7.81613C398.993 7.81613 398.649 8.15974 398.649 8.58387C398.649 9.00788 398.993 9.35188 399.417 9.35188C399.841 9.35188 400.185 9.00788 400.185 8.58387C400.185 8.15987 399.841 7.81613 399.417 7.81613ZM392.715 11.9999C392.715 10.1849 394.186 8.71331 396.001 8.71324C397.816 8.71324 399.288 10.1849 399.288 11.9999C399.288 13.815 397.817 15.286 396.001 15.286C394.186 15.286 392.715 13.815 392.715 11.9999Z" fill="#B0B0B0"/>
<path fill-rule="evenodd" clip-rule="evenodd" d="M396.001 9.86679C397.179 9.86679 398.134 10.8219 398.134 12.0001C398.134 13.1783 397.179 14.1335 396.001 14.1335C394.822 14.1335 393.867 13.1783 393.867 12.0001C393.867 10.8219 394.822 9.86679 396.001 9.86679Z" fill="#B0B0B0"/>
<path fill-rule="evenodd" clip-rule="evenodd" d="M428 0C421.373 0 416 5.37258 416 12C416 18.6274 421.373 24 428 24C434.627 24 440 18.6274 440 12C440 5.37258 434.627 0 428 0ZM427.666 10.1691L427.641 9.7539C427.565 8.6777 428.228 7.69472 429.277 7.31339C429.663 7.1778 430.318 7.16085 430.746 7.27949C430.914 7.33033 431.233 7.49981 431.46 7.65235L431.871 7.93199L432.324 7.78793C432.576 7.71166 432.912 7.58455 433.063 7.49981C433.206 7.42355 433.332 7.38118 433.332 7.4066C433.332 7.55066 433.021 8.04215 432.761 8.31332C432.408 8.69465 432.509 8.72855 433.222 8.47433C433.651 8.33027 433.659 8.33027 433.575 8.49127C433.525 8.57601 433.264 8.8726 432.987 9.14377C432.517 9.60984 432.492 9.66069 432.492 10.0505C432.492 10.6521 432.207 11.9063 431.921 12.5927C431.393 13.8808 430.259 15.2112 429.126 15.8806C427.531 16.8212 425.408 17.0585 423.62 16.5077C423.024 16.3213 422 15.8467 422 15.762C422 15.7366 422.311 15.7027 422.688 15.6942C423.477 15.6772 424.266 15.4569 424.938 15.0671L425.391 14.7959L424.871 14.618C424.132 14.3638 423.469 13.7791 423.301 13.2283C423.251 13.0503 423.267 13.0418 423.738 13.0418L424.224 13.0333L423.813 12.8384C423.326 12.5927 422.881 12.1775 422.663 11.7538C422.504 11.4487 422.302 10.6776 422.361 10.6183C422.378 10.5928 422.554 10.6437 422.755 10.7115C423.335 10.9233 423.41 10.8725 423.074 10.5166C422.445 9.87254 422.252 8.91498 422.554 8.00826L422.697 7.6015L423.251 8.15231C424.384 9.26241 425.718 9.92338 427.246 10.1183L427.666 10.1691Z" fill="#B0B0B0"/>
<path fill-rule="evenodd" clip-rule="evenodd" d="M300 0C293.373 0 288 5.37258 288 12C288 18.6274 293.373 24 300 24C306.627 24 312 18.6274 312 12C312 5.37258 306.627 0 300 0ZM301.253 12.5271V19.0557H298.551V12.5274H297.202V10.2776H298.551V8.92678C298.551 7.0914 299.313 6 301.478 6H303.281V8.25006H302.154C301.311 8.25006 301.256 8.56447 301.256 9.15125L301.253 10.2773H303.294L303.055 12.5271H301.253Z" fill="#B0B0B0"/>
<path fill-rule="evenodd" clip-rule="evenodd" d="M280 12C280 18.6274 274.627 24 268 24C261.373 24 256 18.6274 256 12C256 5.37258 261.373 0 268 0C274.627 0 280 5.37258 280 12ZM268.394 18.6764H268.397C272.331 18.6748 275.531 15.4743 275.532 11.5409C275.533 9.6343 274.791 7.84155 273.444 6.49284C272.097 5.14407 270.305 4.40096 268.397 4.40014C264.463 4.40014 261.262 7.60098 261.261 11.5353C261.26 12.7929 261.589 14.0204 262.213 15.1026L261.201 18.8001L264.984 17.8079C266.026 18.3764 267.199 18.676 268.394 18.6764Z" fill="#B0B0B0"/>
<path fill-rule="evenodd" clip-rule="evenodd" d="M265.376 16.6444L265.159 16.5159L262.914 17.1047L263.513 14.9161L263.372 14.6917C262.779 13.7475 262.465 12.6561 262.466 11.5354C262.467 8.26547 265.128 5.60513 268.399 5.60513C269.983 5.60568 271.472 6.22336 272.592 7.34441C273.712 8.46546 274.328 9.95552 274.327 11.5403C274.326 14.8105 271.666 17.4711 268.397 17.4711H268.394C267.33 17.4707 266.286 17.1848 265.376 16.6444ZM271.745 13.0772C271.869 13.1373 271.953 13.1779 271.989 13.2378C272.034 13.3121 272.034 13.6691 271.885 14.0856C271.737 14.5021 271.024 14.8822 270.682 14.9334C270.375 14.9793 269.986 14.9985 269.559 14.8627C269.3 14.7806 268.968 14.6709 268.542 14.4872C266.871 13.7654 265.741 12.1454 265.528 11.8392C265.513 11.8178 265.502 11.8028 265.497 11.795L265.495 11.7931C265.401 11.6672 264.769 10.8236 264.769 9.9506C264.769 9.12934 265.172 8.69887 265.358 8.50073C265.37 8.48715 265.382 8.47467 265.393 8.46322C265.556 8.28472 265.749 8.2401 265.868 8.2401C265.987 8.2401 266.106 8.24119 266.21 8.24641C266.223 8.24705 266.236 8.24698 266.25 8.2469C266.354 8.24629 266.483 8.24553 266.611 8.55247C266.66 8.6706 266.732 8.84572 266.808 9.03043C266.961 9.40393 267.131 9.8166 267.161 9.87632C267.205 9.96557 267.235 10.0697 267.175 10.1887C267.167 10.2065 267.158 10.2234 267.15 10.2395C267.106 10.3306 267.073 10.3976 266.997 10.4861C266.967 10.5209 266.937 10.5584 266.906 10.5959C266.844 10.6706 266.783 10.7453 266.73 10.7985C266.64 10.8874 266.548 10.9838 266.652 11.1623C266.756 11.3408 267.113 11.9247 267.643 12.3975C268.213 12.9057 268.708 13.1205 268.959 13.2293C269.008 13.2506 269.048 13.2678 269.077 13.2824C269.255 13.3717 269.359 13.3567 269.463 13.2378C269.567 13.1188 269.909 12.7171 270.028 12.5387C270.147 12.3603 270.266 12.39 270.429 12.4494C270.593 12.509 271.469 12.9403 271.648 13.0295C271.682 13.0469 271.715 13.0627 271.745 13.0772Z" fill="#B0B0B0"/>
<path fill-rule="evenodd" clip-rule="evenodd" d="M236 0C242.627 0 248 5.37258 248 12C248 18.6274 242.627 24 236 24C229.373 24 224 18.6274 224 12C224 5.37258 229.373 0 236 0ZM236.718 4.8882C237.534 4.99003 238.194 5.1866 238.917 5.53948C239.629 5.88764 240.084 6.21684 240.686 6.81601C241.251 7.38205 241.564 7.81074 241.896 8.47623C242.359 9.40463 242.622 10.5083 242.667 11.7232C242.684 12.1377 242.672 12.2301 242.577 12.3485C242.397 12.5782 242 12.5403 241.865 12.2822C241.823 12.1969 241.811 12.1235 241.796 11.7919C241.773 11.2827 241.737 10.9535 241.666 10.5604C241.386 9.01859 240.646 7.78704 239.465 6.90364C238.481 6.16474 237.463 5.80473 236.13 5.72658C235.679 5.70053 235.601 5.68397 235.499 5.6058C235.309 5.45659 235.3 5.10609 235.482 4.94268C235.594 4.84082 235.672 4.82662 236.059 4.83846C236.26 4.84556 236.557 4.86925 236.718 4.8882ZM231.297 5.14372C231.38 5.17213 231.508 5.23844 231.582 5.28581C232.032 5.58424 233.287 7.18758 233.698 7.9881C233.932 8.44517 234.011 8.78385 233.937 9.0349C233.861 9.30489 233.735 9.447 233.173 9.89935C232.948 10.0817 232.737 10.2688 232.704 10.3185C232.618 10.4417 232.549 10.6833 232.549 10.8538C232.552 11.2493 232.808 11.9669 233.145 12.5187C233.406 12.9474 233.873 13.4968 234.336 13.9184C234.879 14.4158 235.358 14.7544 235.899 15.0221C236.594 15.3678 237.018 15.4555 237.329 15.311C237.407 15.2755 237.49 15.2281 237.516 15.2068C237.54 15.1855 237.723 14.9629 237.922 14.7166C238.306 14.2334 238.394 14.1553 238.657 14.0653C238.992 13.9516 239.333 13.9824 239.677 14.1576C239.938 14.2926 240.507 14.6455 240.875 14.9013C241.359 15.24 242.393 16.0831 242.533 16.2513C242.78 16.5544 242.822 16.9428 242.656 17.3715C242.481 17.8238 241.798 18.6717 241.321 19.0341C240.889 19.3609 240.583 19.4864 240.18 19.5053C239.848 19.5219 239.71 19.4935 239.286 19.3182C235.956 17.947 233.297 15.9007 231.186 13.0895C230.083 11.6211 229.243 10.0983 228.669 8.51861C228.335 7.59734 228.318 7.19708 228.593 6.72578C228.712 6.52685 229.217 6.03422 229.585 5.75951C230.197 5.30477 230.479 5.13661 230.704 5.08926C230.858 5.05609 231.126 5.08214 231.297 5.14372ZM236.883 6.60518C238.323 6.81595 239.438 7.48384 240.168 8.56853C240.579 9.17956 240.835 9.89717 240.923 10.6669C240.953 10.9487 240.953 11.4626 240.92 11.5479C240.889 11.6284 240.79 11.7374 240.704 11.7824C240.612 11.8297 240.415 11.825 240.306 11.7682C240.123 11.6758 240.069 11.529 240.069 11.1311C240.069 10.5177 239.91 9.87112 239.635 9.36903C239.322 8.79589 238.866 8.32223 238.311 7.99301C237.834 7.70881 237.13 7.49804 236.487 7.44595C236.255 7.42698 236.127 7.37962 236.039 7.27779C235.904 7.12383 235.889 6.91542 236.003 6.74255C236.126 6.5507 236.316 6.51991 236.883 6.60518ZM237.387 8.39334C237.854 8.49282 238.212 8.67044 238.518 8.95701C238.912 9.32882 239.128 9.77881 239.222 10.4254C239.287 10.8469 239.26 11.0127 239.111 11.1501C238.971 11.278 238.713 11.2827 238.556 11.1619C238.442 11.0767 238.407 10.9867 238.38 10.7427C238.35 10.4183 238.293 10.1909 238.195 9.98012C237.987 9.53251 237.619 9.30041 236.998 9.22462C236.706 9.18909 236.618 9.15594 236.523 9.04464C236.35 8.83859 236.416 8.50465 236.656 8.38149C236.746 8.3365 236.784 8.33176 236.983 8.3436C237.107 8.35071 237.289 8.37201 237.387 8.39334Z" fill="#B0B0B0"/>
<path fill-rule="evenodd" clip-rule="evenodd" d="M184 12C184 18.6274 178.627 24 172 24C165.373 24 160 18.6274 160 12C160 5.37258 165.373 0 172 0C178.627 0 184 5.37258 184 12ZM171.636 9.45795C172.785 9.45795 173.737 10.2292 173.803 11.5118L173.806 11.771C173.744 12.8984 172.889 13.8516 171.587 13.8516C170.42 13.8516 169.53 13.0135 169.53 11.6863C169.53 10.5013 170.266 9.45795 171.592 9.45795H171.636ZM173.931 9.31572C173.319 8.70229 172.485 8.31051 171.599 8.31051C169.847 8.31051 168.306 9.86954 168.306 11.6386C168.306 13.3897 169.847 14.9311 171.599 14.9311C172.485 14.9311 173.299 14.5771 173.911 13.9702L173.92 14.2974C173.911 15.2977 175.216 15.9658 176.094 15.2797C178.032 13.7679 178.148 9.88173 176.161 7.80639C174.26 5.82099 171.107 5.42693 168.716 6.84966C165.59 8.70961 165.528 12.2998 166.706 14.3402C168.451 17.3619 172.185 17.4195 173.526 16.8477C174.414 16.4703 174.019 15.3145 173.164 15.6596C171.476 16.3408 168.635 15.6579 167.643 13.3664C166.732 11.2661 167.669 9.02989 169.135 8.01935C170.513 7.06949 173.104 6.79082 175.036 8.48125C177.108 10.2945 176.228 13.4239 175.493 14.1797C175.304 14.3718 174.965 14.217 174.995 13.9175L174.993 9.33752C174.993 9.20855 174.904 8.80107 174.474 8.80107L174.404 8.80153C174.129 8.80153 173.931 9.02349 173.931 9.31816V9.31572Z" fill="#B0B0B0"/>
<path fill-rule="evenodd" clip-rule="evenodd" d="M88 12C88 18.6274 82.6274 24 76 24C69.3726 24 64 18.6274 64 12C64 5.37258 69.3726 0 76 0C82.6274 0 88 5.37258 88 12ZM79.5879 8.09359C80.1182 8.50886 80.7785 8.75502 81.4941 8.75502C81.4945 8.75502 81.4995 8.75502 81.5 8.75463V9.32643V10.8677C80.8 10.868 80.1199 10.7256 79.4785 10.4446C79.066 10.2638 78.6818 10.0308 78.3303 9.74933L78.3408 14.4935C78.3364 15.5618 77.9294 16.5656 77.1927 17.3216C76.5931 17.937 75.8334 18.3283 75.01 18.455C74.8165 18.4847 74.6196 18.5 74.4205 18.5C73.5391 18.5 72.7022 18.2035 72.0177 17.6565C71.8888 17.5535 71.7656 17.4419 71.6483 17.3216C70.8499 16.5022 70.4382 15.3917 70.5075 14.2235C70.5604 13.3342 70.9033 12.4861 71.4749 11.8214C72.2312 10.9417 73.2893 10.4535 74.4205 10.4535C74.6196 10.4535 74.8165 10.469 75.01 10.4987V11.0686V12.6539C74.8266 12.5911 74.6306 12.5565 74.4266 12.5565C73.3931 12.5565 72.557 13.4321 72.5724 14.506C72.5822 15.1931 72.9437 15.7938 73.4769 16.1249C73.7274 16.2805 74.0157 16.3769 74.3233 16.3944C74.5643 16.4081 74.7957 16.3733 75.01 16.2998C75.7484 16.0465 76.2811 15.3264 76.2811 14.477L76.2836 11.3V5.5H78.3279C78.3298 5.71031 78.3504 5.91552 78.3886 6.11439C78.5429 6.91924 78.9798 7.61754 79.5879 8.09359ZM81.5 8.75463C81.5 8.75459 81.5 8.75467 81.5 8.75463Z" fill="#B0B0B0"/>
<path fill-rule="evenodd" clip-rule="evenodd" d="M120 12C120 18.6274 114.627 24 108 24C101.373 24 96 18.6274 96 12C96 5.37258 101.373 0 108 0C114.627 0 120 5.37258 120 12ZM108 20.5C113.246 20.5 117.5 16.2467 117.5 11C117.5 5.75329 113.246 1.5 108 1.5C102.753 1.5 98.4998 5.75329 98.4998 11C98.4998 16.2467 102.753 20.5 108 20.5Z" fill="#B0B0B0"/>
<path d="M105.307 20.1094C105.38 19.9877 105.448 19.879 105.513 19.767C105.812 19.252 106.079 18.7198 106.24 18.1451C106.375 17.6634 106.494 17.1781 106.619 16.6939C106.718 16.3052 106.816 15.9158 106.915 15.5267C106.919 15.5126 106.924 15.4988 106.93 15.4791C106.975 15.5447 107.014 15.6071 107.058 15.6649C107.256 15.9233 107.509 16.1162 107.792 16.2723C108.158 16.472 108.56 16.5956 108.974 16.6354C109.202 16.6549 109.43 16.6534 109.657 16.631C110.024 16.6013 110.387 16.527 110.736 16.4099C111.191 16.2566 111.618 16.0308 112.001 15.7413C112.607 15.2858 113.077 14.7151 113.445 14.056C113.8 13.4185 114.051 12.7291 114.191 12.0133C114.253 11.7017 114.3 11.3872 114.331 11.0708C114.364 10.7376 114.38 10.4029 114.379 10.068C114.375 9.37856 114.224 8.71777 113.946 8.08589C113.714 7.55589 113.396 7.06708 113.007 6.63845C112.597 6.18562 112.115 5.80239 111.582 5.50371C111.047 5.20309 110.47 4.98391 109.871 4.85339C109.581 4.79033 109.288 4.74577 108.993 4.71998C108.62 4.68751 108.246 4.68212 107.873 4.70385C107.375 4.72955 106.88 4.8012 106.395 4.9179C105.591 5.11352 104.843 5.43417 104.16 5.90227C103.665 6.24189 103.222 6.65317 102.847 7.12268C102.348 7.74266 101.979 8.45753 101.764 9.22399C101.656 9.60581 101.592 9.9989 101.574 10.3954C101.547 11.021 101.612 11.6355 101.796 12.2353C101.939 12.7011 102.154 13.1294 102.473 13.502C102.75 13.8314 103.104 14.0882 103.503 14.2501C103.57 14.278 103.641 14.2906 103.713 14.287C103.871 14.2744 103.954 14.1661 103.992 14.0233C104.046 13.8248 104.095 13.6254 104.144 13.4254C104.171 13.3167 104.196 13.2075 104.216 13.0976C104.222 13.056 104.22 13.0135 104.21 12.9727C104.199 12.932 104.18 12.8938 104.154 12.8607C104.074 12.7514 103.987 12.6471 103.908 12.5367C103.672 12.2064 103.534 11.8363 103.469 11.4369C103.42 11.117 103.411 10.7923 103.442 10.4702C103.517 9.59386 103.808 8.79673 104.339 8.09322C104.874 7.38532 105.567 6.89146 106.403 6.59552C106.743 6.4762 107.095 6.39528 107.453 6.35424C107.854 6.30672 108.26 6.30292 108.662 6.34293C109.254 6.40179 109.821 6.55007 110.343 6.84391C110.927 7.17169 111.372 7.63141 111.671 8.23041C111.853 8.60055 111.971 8.99892 112.019 9.40851C112.06 9.7447 112.066 10.0841 112.038 10.4216C112.016 10.725 111.991 11.0289 111.945 11.3299C111.819 12.1419 111.582 12.9177 111.15 13.6243C110.931 13.9831 110.666 14.3027 110.327 14.5565C110.048 14.766 109.74 14.9115 109.395 14.9696C108.9 15.0533 108.439 14.9773 108.037 14.6606C107.736 14.4242 107.563 14.1119 107.513 13.732C107.479 13.4792 107.52 13.2346 107.591 12.9935C107.762 12.406 107.937 11.8192 108.11 11.2319C108.211 10.8901 108.303 10.546 108.354 10.1927C108.399 9.87849 108.401 9.56559 108.307 9.25771C108.137 8.70102 107.711 8.38309 107.127 8.37639C106.657 8.37094 106.274 8.56342 105.955 8.89643C105.637 9.22944 105.454 9.62947 105.351 10.0693C105.253 10.4863 105.244 10.9071 105.297 11.3318C105.336 11.6668 105.422 11.9947 105.55 12.3065C105.56 12.3327 105.562 12.3611 105.556 12.3884C105.271 13.5994 104.984 14.8102 104.697 16.0207C104.57 16.5577 104.439 17.0939 104.321 17.6334C104.269 17.8714 104.241 18.1151 104.212 18.357C104.164 18.7537 104.168 19.1529 104.172 19.5509C104.172 19.5942 104.172 19.6376 104.172 19.6908C102.742 19.0539 101.528 18.135 100.563 16.9052C98.8939 14.7779 98.2508 12.3606 98.5854 9.68036C99.3832 4.09376 104.796 0.423108 110.284 1.78447C115.711 3.12928 118.816 8.81118 116.962 14.153C116.012 16.7251 114.294 18.5931 111.786 19.7017C109.69 20.6284 107.522 20.726 105.307 20.1094Z" fill="#B0B0B0"/>
<path fill-rule="evenodd" clip-rule="evenodd" d="M460 0C453.373 0 448 5.37258 448 12C448 18.6274 453.373 24 460 24C466.627 24 472 18.6274 472 12C472 5.37258 466.627 0 460 0ZM465 7.87453C465.551 8.02566 465.985 8.47097 466.132 9.03647C466.4 10.0614 466.4 12.1999 466.4 12.1999C466.4 12.1999 466.4 14.3383 466.132 15.3633C465.985 15.9288 465.551 16.3741 465 16.5253C464.002 16.7999 460 16.7999 460 16.7999C460 16.7999 455.997 16.7999 454.999 16.5253C454.448 16.3741 454.014 15.9288 453.867 15.3633C453.6 14.3383 453.6 12.1999 453.6 12.1999C453.6 12.1999 453.6 10.0614 453.867 9.03647C454.014 8.47097 454.448 8.02566 454.999 7.87453C455.997 7.59986 460 7.59986 460 7.59986C460 7.59986 464.002 7.59986 465 7.87453Z" fill="#B0B0B0"/>
<path fill-rule="evenodd" clip-rule="evenodd" d="M458.801 14.4001V10.4001L462.001 12.4002L458.801 14.4001Z" fill="#B0B0B0"/>
<path fill-rule="evenodd" clip-rule="evenodd" d="M202.037 17.2701C202.368 17.2701 202.514 17.1191 202.698 16.9399L204.459 15.2271L202.262 13.9021" fill="white"/>
<path fill-rule="evenodd" clip-rule="evenodd" d="M202.262 13.9024L207.586 17.8359C208.193 18.1711 208.632 17.9975 208.783 17.2718L210.95 7.05934C211.172 6.16978 210.611 5.76631 210.03 6.03018L197.305 10.9371C196.436 11.2855 196.441 11.7701 197.146 11.9861L199.53 12.7301C200.09 12.9047 200.697 12.8252 201.193 12.5124L207.972 8.23558C208.329 8.01915 208.657 8.13551 208.388 8.37412" fill="white"/>
<path fill-rule="evenodd" clip-rule="evenodd" d="M332.785 16.9624C332.785 16.9624 333.073 16.9307 333.221 16.7741C333.357 16.6306 333.352 16.3598 333.352 16.3598C333.352 16.3598 333.334 15.0951 333.93 14.9084C334.516 14.7248 335.27 16.1314 336.07 16.6723C336.674 17.0812 337.133 16.9917 337.133 16.9917L339.27 16.9624C339.27 16.9624 340.387 16.8945 339.857 16.028C339.814 15.957 339.548 15.3868 338.269 14.2155C336.928 12.9895 337.108 13.1878 338.722 11.0667C339.705 9.77504 340.098 8.98648 339.975 8.64929C339.858 8.32677 339.135 8.41242 339.135 8.41242L336.73 8.42708C336.73 8.42708 336.551 8.40316 336.419 8.48109C336.29 8.55747 336.206 8.73571 336.206 8.73571C336.206 8.73571 335.826 9.73492 335.318 10.5852C334.246 12.3784 333.818 12.4733 333.643 12.3622C333.235 12.1021 333.337 11.319 333.337 10.7627C333.337 9.02428 333.605 8.29976 332.817 8.11227C332.555 8.04977 332.363 8.00887 331.694 8.00193C330.835 7.99344 330.109 8.00502 329.697 8.20332C329.424 8.33526 329.212 8.63 329.341 8.64698C329.5 8.66781 329.86 8.74266 330.051 8.99882C330.298 9.32983 330.289 10.0721 330.289 10.0721C330.289 10.0721 330.431 12.1184 329.958 12.3722C329.634 12.5466 329.19 12.1909 328.234 10.5636C327.745 9.73029 327.376 8.80901 327.376 8.80901C327.376 8.80901 327.304 8.63695 327.177 8.54436C327.023 8.43248 326.807 8.39776 326.807 8.39776L324.522 8.41242C324.522 8.41242 324.178 8.42167 324.052 8.56905C323.94 8.69945 324.043 8.97027 324.043 8.97027C324.043 8.97027 325.833 13.099 327.86 15.18C329.719 17.0874 331.828 16.9624 331.828 16.9624H332.785Z" fill="white"/>
<path fill-rule="evenodd" clip-rule="evenodd" d="M365.32 9.0968C365.32 8.38977 364.724 7.81484 363.992 7.81484C363.26 7.81484 362.664 8.38977 362.664 9.0968C362.664 9.80328 363.26 10.3786 363.992 10.3786C364.724 10.3786 365.32 9.80328 365.32 9.0968ZM367.2 9.09679C367.2 10.804 365.761 12.1927 363.992 12.1927C362.223 12.1927 360.784 10.804 360.784 9.09679C360.784 7.38905 362.223 6 363.992 6C365.761 6 367.2 7.38905 367.2 9.09679ZM367.161 13.9755C366.581 14.3272 365.951 14.5766 365.298 14.7201L367.091 16.4514C367.459 16.8053 367.459 17.38 367.091 17.7343C366.724 18.0886 366.13 18.0886 365.763 17.7343L364 16.0331L362.238 17.7343C362.054 17.9112 361.814 17.9998 361.573 17.9998C361.333 17.9998 361.092 17.9112 360.909 17.7343C360.542 17.38 360.542 16.8057 360.908 16.4514L362.702 14.7201C362.049 14.5766 361.419 14.3268 360.839 13.9755C360.4 13.7083 360.268 13.1486 360.545 12.7245C360.821 12.2998 361.401 12.172 361.84 12.4392C363.154 13.2366 364.845 13.2368 366.159 12.4392C366.599 12.172 367.179 12.2998 367.455 12.7245C367.732 13.1482 367.6 13.7083 367.161 13.9755Z" fill="white"/>
<path d="M135.274 5.33369C136.785 4.93466 138.364 5.028 139.913 5C139.822 6.46429 139.913 7.97408 139.425 9.3812C139.235 9.91393 138.915 10.3909 138.495 10.769C138.075 11.1471 137.567 11.4144 137.017 11.5467C135.705 11.8594 134.346 11.8839 133 11.8944C133.043 10.2609 132.927 8.56913 133.44 6.994C133.7 6.1481 134.436 5.53904 135.274 5.33369ZM140.113 5C141.722 5.02917 143.378 4.91716 144.945 5.4002C145.339 5.51824 145.698 5.73344 145.989 6.02614C146.279 6.31883 146.491 6.67968 146.606 7.07567C147.073 8.6333 146.982 10.2866 147 11.8944C145.657 11.8851 144.295 11.8617 142.986 11.5444C142.422 11.4062 141.902 11.1266 141.475 10.7318C141.049 10.337 140.73 9.84007 140.549 9.28786C140.113 7.90174 140.187 6.43395 140.113 5ZM133 12.1044C134.196 12.0971 135.391 12.1829 136.574 12.3611C137.74 12.5396 138.867 13.256 139.328 14.3726C139.94 15.8357 139.787 17.4552 139.911 19C138.512 18.9848 137.102 19.0327 135.722 18.7771C134.937 18.6266 134.106 18.2824 133.693 17.5555C133.166 16.6116 133.106 15.5009 133.045 14.438C133.035 13.6597 132.986 12.8827 133.004 12.1044H133ZM143.183 12.4113C144.436 12.1604 145.721 12.1196 146.997 12.1068C146.978 13.7146 147.075 15.3679 146.603 16.9255C146.487 17.32 146.275 17.6795 145.985 17.9715C145.696 18.2636 145.339 18.4791 144.946 18.5986C143.381 19.0805 141.717 18.9708 140.101 18.9965C140.176 17.5322 140.101 16.0224 140.579 14.6153C140.966 13.4754 142.013 12.6376 143.183 12.4113Z" fill="white"/>
<path d="M50.5485 14.9608C48.8373 14.6792 48.0661 12.9264 48.0349 12.852C48.0325 12.8472 48.0309 12.8424 48.0277 12.8376C47.9405 12.66 47.9197 12.5136 47.9677 12.4024C48.0613 12.1832 48.4197 12.0696 48.6565 11.9944C48.7253 11.9728 48.7901 11.952 48.8437 11.9312C49.0773 11.8392 49.2437 11.7392 49.3541 11.6264C49.4853 11.4912 49.5109 11.3616 49.5093 11.2776C49.5053 11.0728 49.3485 10.8904 49.0981 10.8016C49.0141 10.7672 48.9173 10.7488 48.8197 10.7488C48.7533 10.7488 48.6541 10.7576 48.5605 10.8016C48.3605 10.8952 48.1813 10.9464 48.0269 10.9536C47.9453 10.9496 47.8877 10.932 47.8501 10.9152C47.8549 10.8352 47.8597 10.7528 47.8653 10.668L47.8677 10.6312C47.9229 9.7648 47.9909 8.6872 47.7045 8.0472C47.5085 7.6088 47.2453 7.232 46.9213 6.9264C46.6501 6.6704 46.3349 6.4624 45.9845 6.3088C45.3757 6.04 44.8077 6 44.5229 6H44.5221C44.5109 6 44.5005 6 44.4909 6C44.4117 6.0008 44.2829 6.0024 44.2709 6.0024C43.9869 6.0024 43.4181 6.0424 42.8077 6.3112C42.4581 6.4648 42.1445 6.672 41.8741 6.928C41.5517 7.2336 41.2893 7.6096 41.0941 8.0464C40.8077 8.6856 40.8757 9.7632 40.9301 10.6288V10.6304C40.9357 10.7232 40.9421 10.82 40.9477 10.9144C40.9061 10.9328 40.8381 10.9536 40.7381 10.9536C40.5765 10.9536 40.3845 10.9024 40.1677 10.8008C40.1037 10.7712 40.0309 10.756 39.9509 10.756C39.8221 10.756 39.6853 10.7936 39.5677 10.8632C39.4189 10.9504 39.3229 11.0728 39.2965 11.2096C39.2797 11.2992 39.2805 11.4776 39.4789 11.6584C39.5885 11.7576 39.7485 11.8496 39.9557 11.9312C40.0101 11.9528 40.0749 11.9728 40.1429 11.9944C40.3797 12.0696 40.7389 12.1832 40.8325 12.4024C40.8797 12.5136 40.8589 12.66 40.7717 12.8376C40.7693 12.8424 40.7669 12.8472 40.7653 12.852C40.7429 12.9032 40.5389 13.3632 40.1205 13.8488C39.8829 14.1248 39.6213 14.356 39.3429 14.5352C39.0029 14.7544 38.6357 14.8968 38.2509 14.96C38.0997 14.9848 37.9917 15.1192 38.0005 15.272C38.0029 15.316 38.0133 15.36 38.0317 15.4024V15.4032C38.0933 15.5464 38.2349 15.6672 38.4653 15.7736C38.7469 15.904 39.1677 16.0136 39.7173 16.0992C39.7453 16.152 39.7741 16.284 39.7941 16.3744C39.8149 16.4704 39.8365 16.5696 39.8677 16.6744C39.9013 16.788 39.9877 16.924 40.2109 16.924C40.2957 16.924 40.3925 16.9048 40.5053 16.8832C40.6701 16.8512 40.8957 16.8072 41.1765 16.8072C41.3325 16.8072 41.4941 16.8208 41.6565 16.848C41.9701 16.9 42.2405 17.0904 42.5533 17.3112C43.0109 17.6344 43.5293 18 44.3213 18C44.3429 18 44.3645 17.9992 44.3861 17.9976C44.4117 17.9992 44.4445 18 44.4781 18C45.2701 18 45.7885 17.6344 46.2461 17.312L46.2469 17.3112C46.5597 17.0912 46.8301 16.9008 47.1437 16.8488C47.3061 16.8216 47.4677 16.808 47.6237 16.808C47.8925 16.808 48.1053 16.8424 48.2949 16.8792C48.4189 16.9032 48.5149 16.9152 48.5893 16.9152H48.5965H48.6037C48.7669 16.9152 48.8869 16.8256 48.9325 16.6696C48.9629 16.5664 48.9845 16.4704 49.0061 16.372C49.0245 16.2872 49.0549 16.1512 49.0821 16.0984C49.6317 16.012 50.0525 15.9032 50.3341 15.7728C50.5637 15.6664 50.7053 15.5456 50.7669 15.4032C50.7853 15.3608 50.7965 15.3168 50.7989 15.2712C50.8077 15.12 50.6997 14.9848 50.5485 14.9608Z" fill="white" stroke="white" stroke-width="0.3"/>
<path d="M17.9969 18V17.9995H17.9999V13.5985C17.9999 11.4455 17.5364 9.78699 15.0194 9.78699C13.8094 9.78699 12.9974 10.451 12.6659 11.0805H12.6309V9.98799H10.2444V17.9995H12.7294V14.0325C12.7294 12.988 12.9274 11.978 14.2209 11.978C15.4954 11.978 15.5144 13.17 15.5144 14.0995V18H17.9969Z" fill="white"/>
<path d="M6.198 9.98846H8.686V18H6.198V9.98846Z" fill="white"/>
<path d="M7.441 6C6.6455 6 6 6.6455 6 7.441C6 8.2365 6.6455 8.8955 7.441 8.8955C8.2365 8.8955 8.882 8.2365 8.882 7.441C8.8815 6.6455 8.236 6 7.441 6V6Z" fill="white"/>
</g>
<defs>
<clipPath id="clip0_608_52">
<rect width="472" height="24" fill="white"/>
</clipPath>
</defs>
</svg>
