<svg xmlns="http://www.w3.org/2000/svg" width="178" height="40" viewBox="0 0 178 40" fill="none">
    <path d="M44.6517 23.9589C44.0745 28.0243 40.5357 31.5782 36.7842 32.0219C31.3323 32.6667 28.1508 29.3434 28.9201 23.9247C29.5215 19.6888 32.8419 16.326 36.7842 15.8598C41.3527 15.3195 45.4745 18.163 44.6517 23.9589ZM37.2234 0H26.2785L14.0804 15.1547L9.96226 0H0L7.21392 23.8624L7.20192 23.9073L3.10756 39.3881H12.4716L16.3673 24.8169L16.4217 24.7516L21.3324 18.9085C20.6483 20.4888 20.1775 22.1801 19.9637 23.9464C18.9719 32.1408 24.0421 39.9883 35.108 40C35.6522 40.0006 36.2109 39.9822 36.7842 39.944C44.8213 39.4082 52.4861 33.2131 53.608 23.9464C54.5264 16.3555 49.7957 7.07325 36.7842 7.94077C33.583 8.15409 30.6202 9.20359 28.0943 10.8625L37.2234 0Z" fill="white"/>
    <path d="M63.9554 30.0805C61.9595 28.3653 58.2687 28.5096 56.1216 31.0083C53.9538 33.5307 54.0534 37.0454 56.24 38.9245C58.0452 40.4761 61.9018 40.499 64.1377 37.8969C66.2455 35.4444 66.1421 31.9597 63.9554 30.0805Z" fill="white"/>
    <path d="M64.4168 0L57.7817 24.8169H67.1455L73.7806 0H64.4168Z" fill="white"/>
    <path d="M97.2038 20.5742C93.996 20.5742 91.8499 21.9702 90.3431 23.5773C89.7188 21.7117 87.9783 20.5742 85.4656 20.5742C83.5817 20.5742 81.8926 21.3625 80.2308 22.8384C80.4468 22.0313 80.7356 20.9503 80.7356 20.9503H76.5448L71.6162 39.3838H75.8956C75.8956 39.3838 77.8425 32.1023 78.3616 30.161C78.9711 27.8807 79.507 26.9549 80.1701 26.2524C81.2287 25.1312 82.435 24.6433 83.6366 24.6433C85.0735 24.6433 86.1179 25.2923 86.3885 26.6928C86.5209 27.3778 86.4124 28.4516 85.9554 30.161C85.227 32.8852 83.4895 39.3838 83.4895 39.3838H87.7701C87.7701 39.3838 89.7141 32.1093 90.2349 30.161C90.7448 28.2541 91.2383 27.1079 92.0523 26.2317C92.8827 25.338 94.0404 24.6433 95.4424 24.6433C97.2608 24.6433 98.0424 25.5497 98.2629 26.6928C98.4195 27.5048 98.2462 28.5982 97.8298 30.161C97.3605 31.9208 95.3626 39.3838 95.3626 39.3838H99.6424C99.6424 39.3838 101.563 32.1982 102.257 29.6039C103.028 26.7207 103.027 25.0604 102.366 23.5914C101.545 21.7691 99.6762 20.5742 97.2038 20.5742Z" fill="white"/>
    <path d="M149.645 24.4725C152.773 24.4725 153.937 26.3867 154.228 28.0266C155.296 27.5982 158.09 26.4778 158.09 26.4778C157.252 22.9134 154.439 20.5742 149.977 20.5742C144.459 20.5742 139.673 25.2473 139.221 30.3383C138.727 35.9139 142.137 39.7596 147.932 39.7596C152.776 39.7596 156.052 36.0715 156.873 34.3177C155.938 33.8396 154.672 33.1923 153.352 32.5174C152.903 33.4392 151.222 35.8612 148.159 35.8612C145.081 35.8612 143.302 33.8346 143.559 30.6786C143.79 27.8488 146.204 24.4725 149.645 24.4725Z" fill="white"/>
    <path d="M119.413 28.1836C117.753 28.1836 111.062 28.1836 110.118 28.1836C110.759 26.3392 112.772 24.2674 115.651 24.2674C118.487 24.2674 119.537 26.13 119.413 28.1836ZM115.909 20.5742C110.365 20.5742 105.733 25.3037 105.271 30.5783C104.729 36.7643 109.435 39.7596 113.898 39.7596C118.771 39.7596 121.108 37.2397 122.153 35.9159C121.338 35.2633 120.11 34.2797 119.273 33.6103C118.727 34.2571 117.155 36.134 114.19 36.134C110.957 36.134 109.388 33.8932 109.505 31.4675C111.17 31.4675 121.244 31.4675 123.166 31.4675C124.863 26.0313 122.282 20.5742 115.909 20.5742Z" fill="white"/>
    <path d="M136.238 21.0977C135.099 21.4721 133.972 22.2362 133.111 23.1552C133.339 22.3016 133.703 20.9498 133.703 20.9498H129.489L124.561 39.3833H128.84C128.84 39.3833 130.874 31.772 131.304 30.1665C131.707 28.6571 132.299 27.6376 133.159 26.7673C134.577 25.3323 136.557 24.7798 138.596 25.4201C138.986 23.9605 139.541 21.8856 139.783 20.9816C138.999 20.7088 137.528 20.6733 136.238 21.0977Z" fill="white"/>
    <path d="M177.411 23.6017C176.537 21.7357 174.718 20.5812 172.243 20.5812C170.067 20.5812 168.414 21.5265 166.859 22.8109L169.178 14.1367H164.894L158.137 39.4106H162.421C162.421 39.4106 164.367 32.1283 164.889 30.1783C165.469 28.0103 165.903 27.2396 166.683 26.3336C167.531 25.3478 168.858 24.6547 170.48 24.6547C171.691 24.6547 172.971 25.0446 173.303 26.7061C173.452 27.4485 173.277 28.6472 172.87 30.1783C172.401 31.9402 170.4 39.4106 170.4 39.4106H174.684C174.684 39.4106 176.607 32.2175 177.302 29.6204C177.648 28.3245 177.879 27.0943 177.88 25.9778C177.881 25.1094 177.742 24.3099 177.411 23.6017Z" fill="white"/>
</svg>