<svg width="84" height="28" viewBox="0 0 84 28" fill="none" xmlns="http://www.w3.org/2000/svg">
<g clip-path="url(#clip0_901_8367)">
<path d="M23.937 19.9189C21.3671 19.9189 19.4947 17.8635 19.4947 15.2475C19.4947 12.6315 21.4038 10.5761 23.937 10.5761C26.5069 10.5761 28.3793 12.6315 28.3793 15.2475C28.3793 17.8635 26.4702 19.9189 23.937 19.9189ZM23.937 7.25003C19.2744 7.25003 15.7866 10.7629 15.7866 15.2101C15.7866 19.6947 19.2744 23.1702 23.9003 23.1702C28.5629 23.1702 32.0139 19.6573 32.0139 15.2101C32.0506 10.7629 28.5996 7.25003 23.937 7.25003Z" fill="white"/>
<path d="M12.0787 7.73586L8.00351 17.5271L3.96504 7.69849H0L6.13113 21.8622L3.41434 27.8043H7.4161L16.0437 7.69849L12.0787 7.73586Z" fill="white"/>
<path d="M30.6924 0.523197H0V3.92399H30.6924V0.523197Z" fill="white"/>
<path d="M83.4124 0.523191H56.5015V3.92398H83.4124V0.523191Z" fill="white"/>
<path d="M43.5793 0C42.3677 0 41.3765 1.00903 41.3765 2.24228C41.3765 3.47553 42.3677 4.48456 43.5793 4.48456C44.7908 4.48456 45.7821 3.47553 45.7821 2.24228C45.7821 1.00903 44.7908 0 43.5793 0Z" fill="white"/>
<path d="M57.1642 19.9189C54.5576 19.9189 52.6485 17.8635 52.6485 15.2475C52.6485 12.6315 54.5943 10.5761 57.1642 10.5761C59.7709 10.5761 61.68 12.6315 61.68 15.2475C61.7167 17.8635 59.7709 19.9189 57.1642 19.9189ZM57.6415 7.25003C55.7691 7.25003 54.117 7.88534 52.7954 8.89436V0.523191H49.124V11.9588V22.7591H52.3915L52.5017 21.3016C53.86 22.4975 55.6223 23.2076 57.6415 23.2076C62.0838 23.2076 65.388 19.6947 65.388 15.2475C65.388 10.7629 62.0838 7.25003 57.6415 7.25003Z" fill="white"/>
<path d="M45.414 7.69851H41.7427V22.7592H45.414V7.69851Z" fill="white"/>
<path d="M38.0366 0.523191H34.3652V22.7217H38.0366V0.523191Z" fill="white"/>
<path d="M75.3371 19.9189C72.7304 19.9189 70.8213 17.8635 70.8213 15.2475C70.8213 12.6315 72.7671 10.5761 75.3371 10.5761C77.9437 10.5761 79.8528 12.6315 79.8528 15.2475C79.8528 17.8635 77.9437 19.9189 75.3371 19.9189ZM79.9997 9.15599C78.6413 7.96011 76.879 7.25006 74.8598 7.25006C70.4175 7.25006 67.1133 10.763 67.1133 15.2101C67.1133 19.6947 70.4175 23.1702 74.8598 23.1702C76.879 23.1702 78.6413 22.4602 79.9997 21.2643L80.1098 22.7218H83.3773V7.69851H80.1098L79.9997 9.15599Z" fill="white"/>
</g>
<defs>
<clipPath id="clip0_901_8367">
<rect width="83.4128" height="27.8043" fill="white"/>
</clipPath>
</defs>
</svg>
